<?xml version="1.0" encoding="utf-8"?>
<!-- Generator: Adobe Illustrator 26.0.3, SVG Export Plug-In . SVG Version: 6.00 Build 0)  -->
<svg version="1.0" id="katman_1" xmlns="http://www.w3.org/2000/svg" xmlns:xlink="http://www.w3.org/1999/xlink" x="0px" y="0px"
	 viewBox="0 0 600 450" style="enable-background:new 0 0 600 450;" xml:space="preserve">
<style type="text/css">
	.st0{fill-rule:evenodd;clip-rule:evenodd;}
</style>
<g>
	<path class="st0" d="M457.4,226.5c1.7,0,6.1,4.4,6.1,7.8c0,0.3-0.1,0.5-0.4,0.5h-11.6c6.7,3,10.1,8.6,10.1,14.9
		c0,10.7-8.8,18.7-21,18.7c-3.8,0-7-0.4-9.7-1.3c-0.6,0.9-0.9,1.8-0.9,2.9c0,2.2,2,3.4,5.6,3.5H452c7.8,0,12.1,2.9,12.1,8.2
		c0,10.4-21.3,19.2-33,19.2c-6.8,0-11.8-2.9-11.8-7.4c0-2.7,1.8-5.8,5.4-8.5c-3.7-1.6-5.7-4.3-5.7-8c0-4.5,4-8.7,10.1-10.4
		c-7.5-3.1-10.3-9.3-10.3-15.4c0-10.6,9.1-18.3,21.4-18.3c3.3,0,6.2,0.4,8.7,1.1c2.7-3.6,5.4-5.9,7.5-7.1
		C456.9,226.6,457.2,226.5,457.4,226.5L457.4,226.5z M425.6,285.2c3.4,7.8,11.3,9.5,17.5,9.5c5.5,0,9.3-2,9.3-4.8
		c0-2.3-1.8-3.6-5.8-3.6H433C430.1,286.3,427.6,285.9,425.6,285.2L425.6,285.2z M317.3,220.1c0.5,0,0.5,0.5,0.3,0.8
		c-1.9,2-3.4,4.2-3.5,8.3v38c0,16.4-8,23.9-25.3,23.9c-0.9,0-1.7-0.1-2.1-0.2c-0.7-0.2-0.8-0.8-0.2-1.2c6.9-3,10.9-9.4,11.1-17.7
		v-42.3c0-4.4-1.6-6.8-3.5-8.9c-0.2-0.2-0.3-0.7,0.1-0.8H317.3z M514.2,232.7c10.6,0,18.1,5.4,18.1,13c0,8.5-9.4,14.4-23.6,14.4
		c-1.2,0-2.2-0.1-3.1-0.2c2,6,6.6,9.9,13.8,9.9c9.1,0,13.5-6.1,14.5-8c0.4-0.8,1.1-0.5,1,0.3c-0.7,5.4-7.3,19.1-23.5,19.1
		c-13.4,0-22.7-9.3-22.7-23.7C488.8,242.6,498.8,232.7,514.2,232.7L514.2,232.7z M363.6,232.7c0.3,0,0.5,0.1,0.5,0.4l0,0.1v34.9
		c0,3.7,1.3,7.6,2.9,10.7c0.1,0.3,0,0.6-0.2,0.6l-0.1,0H349c-0.3,0-0.5-0.1-0.5-0.4l0-0.1v-8.5c-2.8,6.8-7.9,10.7-14.3,10.7
		c-7.6,0-11.9-5.6-12-15.5v-18.5c0-5.4-1.4-7.6-2.5-8.7c-0.2-0.2-0.2-0.6,0.1-0.7l0.1,0l16.3-4.5c0.9-0.3,1.2-0.3,1.5-0.3
		c0.3,0,0.5,0.1,0.5,0.4v31.4c0,4.6,1.6,7,4.6,7c3.5,0,5.5-3.2,5.6-9.5v-15c0-5.4-1.4-7.6-2.5-8.7c-0.2-0.2-0.2-0.6,0.1-0.7l0.1,0
		l16.3-4.5C363,232.8,363.3,232.7,363.6,232.7L363.6,232.7z M264.2,232.7c10.5,0,18.1,5.4,18.1,13c0,8.5-9.4,14.4-23.6,14.4
		c-1.2,0-2.2-0.1-3.1-0.2c2,6,6.6,9.9,13.8,9.9c9.1,0,13.5-6.1,14.5-8c0.4-0.8,1.1-0.5,1,0.3c-0.7,5.4-7.3,19.1-23.5,19.1
		c-13.4,0-22.6-9.3-22.6-23.7C238.8,242.6,248.7,232.7,264.2,232.7L264.2,232.7z M86.8,223.1c0.3,0,0.5,0.2,0.5,0.5
		c0,0.7-0.3,4.7-0.4,10.3v0.5h11.9c0.3,0,0.6,0.1,0.6,0.4l0,0.1l-1.7,3.4c-0.2,0.3-0.2,0.5-0.4,0.5l-0.1,0H87v28.8
		c0,3.7,2,5.8,5.5,5.8c2.7,0,5-1.3,7.1-3.8c-1.9-3.7-2.7-7.9-2.7-12.1c0-14.4,10.4-24.9,24.5-24.9c16.3,0,24.5,10.6,24.5,23
		c0,14.7-10.1,25.4-24,25.4c-10.7,0-17.3-3.9-21-9.5c-3.1,6-8.9,9.3-16.1,9.3c-8.5,0-13.4-4.4-13.6-12.2v-29.9h-6.3
		c-0.3,0-0.5-0.2-0.5-0.4c0-0.3,0.2-0.6,0.9-1.1l0.2-0.1l20-13.4C86.1,223.3,86.5,223.1,86.8,223.1L86.8,223.1z M176.8,223.1
		c0.3,0,0.5,0.2,0.5,0.5c0,0.7-0.3,4.7-0.3,10.3v0.5H188c0.3,0,0.5,0.1,0.4,0.4l0,0.1l-1.5,3.5c-0.1,0.2-0.2,0.4-0.5,0.4l-0.1,0
		h-9.3v28.8c0,4.3,1.9,6.2,5.5,6.2c2.2,0,3.8-0.5,4.7-1.6c0.3-0.3,0.4-0.4,0.6-0.4c0.4,0,0.4,0.4,0.3,0.9c-2,5.4-7.1,8.2-14.2,8.2
		c-8.4,0-12.7-4.4-12.9-12.2l0-0.4v-29.5h-6.3c-0.3,0-0.5-0.2-0.5-0.4c0-0.3,0.2-0.6,0.9-1.1l0.2-0.1l20-13.4
		C176.1,223.3,176.5,223.1,176.8,223.1L176.8,223.1z M208.1,216.5c0.3,0,0.5,0.2,0.5,0.5c0,0.5-0.3,2.5-0.3,5.7v20.1
		c2.9-6.5,7.8-10.1,14.1-10.1c7.6,0,11.9,5.6,12,15.6v19.8c0,3.7,1.3,7.6,2.9,10.7c0.1,0.3,0,0.6-0.2,0.6l-0.1,0H216
		c-0.3,0-0.5-0.3-0.3-0.6c1.7-3.3,2.7-6.4,2.8-10l0-0.7v-18.8c0-4.6-1.6-7-4.6-7c-3.5,0-5.5,3.2-5.6,9.5v16.3
		c0,3.7,1.3,7.6,2.9,10.7c0.1,0.3,0,0.6-0.2,0.6l-0.1,0h-20.9c-0.3,0-0.5-0.3-0.3-0.6c1.7-3.3,2.7-6.4,2.8-10l0-0.7v-32.9
		c0-4.2-1.4-7.6-3.7-10.5l-0.3-0.4l-0.9-1.1c-0.2-0.2-0.2-0.6,0.1-0.7l0.1,0l19-5.5C207.6,216.6,207.9,216.5,208.1,216.5
		L208.1,216.5z M402.1,232.7c7.5,0,11.8,5.6,12,15.6l0,0.5v19.3c0,3.7,1.3,7.6,2.9,10.7c0.1,0.3,0,0.6-0.2,0.6l-0.1,0h-20.9
		c-0.3,0-0.5-0.3-0.3-0.6c1.7-3.3,2.7-6.4,2.8-10l0-0.7v-18.8c0-4.6-1.6-7-4.6-7c-3.5,0-5.5,3.2-5.6,9.5l0,0.5v15.8
		c0,3.7,1.1,7.7,2.9,10.7c0.1,0.3,0,0.6-0.2,0.6l-0.1,0h-20.9c-0.4,0-0.5-0.3-0.4-0.6c1.9-3.3,2.8-6.5,2.9-10.1l0-0.7v-21
		c0-5.5-1.5-7.5-2.5-8.7c-0.2-0.2-0.2-0.6,0.1-0.7l0.1,0l16.3-4.5c0.9-0.3,1.2-0.3,1.5-0.3c0.3,0,0.5,0.2,0.5,0.5
		c0,1.7-0.2,5.8-0.3,10.2C390.5,236.6,395.6,232.7,402.1,232.7L402.1,232.7z M483.7,216.5c0.3,0,0.5,0.2,0.5,0.5
		c0,0.5-0.3,2.5-0.3,5.7v45.3c0,3.7,1.3,7.6,2.9,10.7c0.1,0.3,0,0.6-0.2,0.6l-0.1,0h-20.9c-0.3,0-0.5-0.3-0.3-0.6
		c1.7-3.3,2.7-6.4,2.8-10l0-0.7v-32.9c0-4.2-1.4-7.6-3.7-10.5l-0.3-0.4l-0.9-1.1c-0.2-0.2-0.2-0.6,0.1-0.7l0.1,0l19-5.5
		C483.1,216.6,483.5,216.5,483.7,216.5L483.7,216.5z M120.5,235.4h-0.2c-4.8,0.3-6.4,7.8-5.7,21.8c0.8,14.1,3.1,21.6,8,21.3
		c4.8-0.3,6.5-7.9,5.8-21.9c-0.7-13.6-3-21-7.6-21.2H120.5z M439.5,235.4l-0.2,0c-3.7,0.2-5.4,5.4-4.8,15.3
		c0.6,10.4,3.1,15.1,6.7,15c4-0.2,5.4-5.8,4.8-15.4c-0.6-9.5-2.7-14.7-6.3-14.9L439.5,235.4z M512.9,235.4c-6,0-8.5,9.5-8.5,17
		c0,2.1,0.3,4.1,0.7,5.9c7.5-1.7,11.7-6.9,11.7-15.4C516.9,237.8,515.4,235.4,512.9,235.4L512.9,235.4z M262.9,235.4
		c-6,0-8.5,9.5-8.5,17c0,2.1,0.3,4.1,0.7,5.9c7.5-1.7,11.8-6.9,11.8-15.4C266.8,237.8,265.3,235.4,262.9,235.4L262.9,235.4z
		 M190.9,157.1c3.3,5.5,6.4,14,2.2,29.1c-2.3,8.3-7.8,24.6-26.3,27.4c-3.6,0.5-4.8-0.8-6.1-2.6c-2.5-3.5-5.6-11-4.3-20.6
		c0.6-4.5,1.6-7.4,2.9-11.3v0l-0.7,1.2c-5.7,10.6-11.8,22.7-17.7,31.5l-0.7,1c-0.7,1-1.4,1.2-1.8,0.9c-0.4-0.2-0.3-0.9-0.1-1.9
		c6.9-28-11.7-50.7-17.4-57.5c-0.5-0.5-0.6-1.6,0.7-1.7l0.2,0h22.3c0.8,0,0.8,0.2,1.2,0.4c1.3,0.7,9.1,17.5,5.8,33.3
		c7.4-13.5,13.8-22.6,13.9-22.9c0.5-0.7,0.9-0.8,1.4-0.6c0.7,0.3,0.6,0.9,0.5,1.2c-2.6,12.5-0.7,25.8,3.3,32.6
		c3.8,6.4,11.5,8.2,14.3,1.7c6.9-15.9-10.4-35.1-13.8-38.7c-1.6-1.7-1.1-3-0.7-3.5C177.5,149,187.5,151.5,190.9,157.1L190.9,157.1z
		 M334.2,165.1c16.3,0,24.5,10.6,24.5,23c0,14.7-10.1,25.4-24,25.4c-14.2,0-21.2-6.9-23.7-15.3c-2.4,6.3-9,15.3-22,15.3
		c-13.5,0-22.6-9.5-22.6-23.7c0-15.8,10.9-24.7,23.6-24.7c7.5,0,13.6,3.3,18,11c1.1,2,1,3.6-0.7,4.3l-0.2,0.1l-12.6,3.7
		c-0.6,0.2-1,0-0.7-1.2c1.7-8.4,0.3-15.1-4-15.1c-5.3,0-7.7,9.7-7.7,16.8c0,10.2,5,17.6,14.8,17.6c7.3,0,11.6-4.1,13.5-6.6
		c-0.3-1.8-0.5-3.6-0.5-5.5C309.7,175.7,320.1,165.1,334.2,165.1L334.2,165.1z M221.4,165.1c10.6,0,18.1,5.4,18.1,13
		c0,8.5-9.4,14.4-23.6,14.4c-1.2,0-2.2-0.1-3.1-0.2c2,6,6.6,9.8,13.8,9.8c9.1,0,13.5-6.1,14.5-8c0.4-0.8,1.1-0.5,1,0.3
		c-0.7,5.4-7.3,19.1-23.5,19.1c-13.4,0-22.7-9.3-22.7-23.7C196,175,205.9,165.1,221.4,165.1L221.4,165.1z M459.7,165.1
		c10.5,0,18.1,5.4,18.1,13c0,8.5-9.4,14.4-23.6,14.4c-1,0-2.1-0.1-3.1-0.2c2,6,6.6,9.8,13.8,9.8c9.1,0,13.5-6.1,14.5-8
		c0.4-0.8,1.1-0.5,1,0.3c-0.7,5.4-7.3,19.1-23.5,19.1c-13.4,0-22.6-9.3-22.6-23.7C434.3,175,444.2,165.1,459.7,165.1L459.7,165.1z
		 M418.2,165.1c7.1,0,11.3,5.6,11.5,15.1v20.3c0,3.7,0.9,7.7,2.5,10.7c0.1,0.3,0,0.6-0.2,0.6l-0.1,0h-20.2c-0.3,0-0.5-0.3-0.3-0.6
		c1.6-3.2,2.4-6.4,2.5-10l0-0.7v-19.3c0-4.1-1.6-6.5-4.1-6.5c-3,0-5,3.2-5.1,9v16.8c0,3.7,1.1,7.6,2.5,10.7c0.1,0.3,0,0.6-0.2,0.6
		l-0.1,0h-20.2c-0.3,0-0.5-0.3-0.3-0.6c1.5-3.3,2.4-6.4,2.5-10l0-0.7v-19.3c0-4.1-1.6-6.5-4.1-6.5c-3,0-5,3.2-5.1,9l0,0.5v16.3
		c0,3.7,1,7.7,2.5,10.7c0.2,0.3,0,0.6-0.2,0.6l-0.1,0h-20.6c-0.4,0-0.5-0.3-0.4-0.6c1.9-3.3,2.8-6.5,2.9-10.1l0-0.7v-21
		c0-5.4-1.5-7.5-2.5-8.7c-0.2-0.2-0.2-0.6,0.1-0.7l0.1,0l16.3-4.5c0.9-0.3,1.2-0.3,1.5-0.3c0.3,0,0.5,0.2,0.5,0.5
		c0,1.7-0.2,5.8-0.3,10.2c2.8-6.8,7.9-10.7,13.8-10.7c5.7,0,9.7,3.7,11,10.3l0.1,0.5h0.2C407.1,169,412.2,165.1,418.2,165.1
		L418.2,165.1z M261.2,148.9c0.3,0,0.5,0.2,0.5,0.5c0,0.5-0.3,2.5-0.3,5.7v45.3c0,3.7,1.3,7.6,2.9,10.7c0.2,0.3,0,0.6-0.2,0.6
		l-0.1,0H243c-0.3,0-0.5-0.3-0.3-0.6c1.7-3.3,2.7-6.4,2.9-10v-33.6c0-4.2-1.4-7.6-3.7-10.5l-0.3-0.4l-0.9-1.1
		c-0.2-0.2-0.2-0.6,0.1-0.7l0.1,0l19-5.5C260.6,149,261,148.9,261.2,148.9L261.2,148.9z M333.3,167.8l-0.2,0
		c-4.8,0.3-6.4,7.8-5.7,21.8c0.8,14.1,3.1,21.5,8,21.3c4.8-0.3,6.5-7.9,5.8-21.9c-0.8-13.6-3-21-7.6-21.2L333.3,167.8z M220.1,167.8
		c-6,0-8.5,9.5-8.5,17c0,2.1,0.3,4.1,0.7,5.9c7.5-1.6,11.8-6.9,11.8-15.4C224.1,170.2,222.5,167.8,220.1,167.8L220.1,167.8z
		 M458.4,167.8c-6,0-8.5,9.5-8.5,17c0,2.1,0.3,4.1,0.7,5.9c7.5-1.6,11.7-6.9,11.7-15.4C462.4,170.2,460.8,167.8,458.4,167.8
		L458.4,167.8z M458.4,167.8"/>
</g>
</svg>
